<?xml version="1.0" encoding="UTF-8"?>
<svg xmlns="http://www.w3.org/2000/svg" xmlns:xlink="http://www.w3.org/1999/xlink" width="500px" height="81px" viewBox="0 0 500 81" version="1.1">
<g id="surface1">
<path style=" stroke:none;fill-rule:nonzero;fill:rgb(99.607843%,100%,100%);fill-opacity:1;" d="M 359.757812 81.269531 C 252.644531 81.269531 145.882812 81.269531 39.078125 81.269531 C 39.078125 54.289062 39.078125 27.308594 39.078125 0.296875 C 180.152344 0.296875 321.273438 0.296875 462.375 0.296875 C 462.375 27.292969 462.375 54.28125 462.375 81.269531 C 428.28125 81.269531 394.195312 81.269531 359.757812 81.269531 M 374.222656 51.558594 C 379.035156 50.9375 383.09375 49.910156 386.441406 48.445312 C 393.128906 45.523438 396.070312 41.96875 398.101562 38.3125 C 401.46875 32.246094 402.136719 26.117188 399.519531 19.980469 C 397.9375 16.28125 395.203125 12.730469 389.496094 9.574219 C 378.378906 3.425781 354.816406 2.929688 343.875 9.820312 C 337.84375 13.613281 335.09375 17.773438 334.207031 22.082031 C 333.511719 25.46875 333.828125 28.898438 334.109375 32.300781 C 334.464844 36.582031 336.445312 40.765625 340.644531 44.773438 C 346.554688 50.410156 359.648438 53.128906 374.222656 51.558594 M 274.984375 51.539062 C 282.03125 51.699219 288.898438 51.628906 295.289062 50.199219 C 306.664062 47.652344 312.160156 43.675781 313.757812 38.949219 C 315.5625 33.601562 312.390625 28.679688 300.824219 25.125 C 294.316406 23.125 286.589844 22.332031 278.175781 23.46875 C 276.511719 23.691406 274.808594 23.875 272.285156 24.179688 C 272.832031 23.253906 272.871094 22.644531 273.53125 22.160156 C 276.300781 20.128906 279.007812 18.078125 282.203125 16.144531 C 287.226562 13.105469 292.714844 10.175781 297.828125 7.15625 C 299.773438 6.003906 298.789062 5.410156 295.160156 5.371094 C 291.007812 5.328125 286.824219 5.472656 282.703125 5.332031 C 277.367188 5.148438 274.054688 6.058594 271.285156 7.664062 C 260.324219 14.015625 252.722656 20.894531 248.828125 28.324219 C 246.722656 32.335938 245.679688 36.429688 248.605469 40.472656 C 252.414062 45.730469 259.578125 49.90625 274.984375 51.539062 M 147.816406 57.476562 C 150.664062 57.640625 151.769531 57.269531 151.71875 56.097656 C 151.53125 51.867188 151.621094 47.640625 151.621094 43.410156 C 151.621094 39.109375 151.554688 34.808594 151.683594 30.507812 C 151.757812 28.089844 152.144531 25.671875 152.433594 23.253906 C 152.511719 22.570312 152.144531 22.109375 149.960938 22.148438 C 147.441406 22.195312 144.914062 22.230469 142.398438 22.195312 C 137.125 22.125 131.863281 21.972656 126.589844 21.921875 C 121.117188 21.875 115.636719 21.886719 110.160156 21.914062 C 105.960938 21.9375 101.765625 22.027344 97.566406 22.085938 C 92.714844 22.152344 87.835938 22.363281 83.011719 22.246094 C 77.980469 22.125 73.015625 21.667969 67.996094 22.28125 C 67.328125 22.363281 66.488281 22.234375 65.726562 22.210938 C 63.390625 22.136719 61.050781 22.066406 58.984375 22.003906 C 58.984375 22.667969 59.023438 23.207031 58.976562 23.746094 C 58.917969 24.359375 58.695312 24.972656 58.699219 25.585938 C 58.707031 27.671875 58.878906 29.757812 58.804688 31.84375 C 58.738281 33.671875 58.214844 35.496094 58.265625 37.324219 C 58.339844 39.824219 56.734375 42.386719 59.707031 44.816406 C 59.855469 44.9375 59.492188 45.148438 59.367188 45.316406 C 59.011719 45.808594 58.292969 46.3125 58.378906 46.792969 C 58.523438 47.589844 59.539062 48.375 59.550781 49.167969 C 59.578125 50.78125 59.550781 52.425781 58.839844 54.011719 C 58.289062 55.238281 58.625 56.246094 60.34375 57.15625 C 65.964844 57.253906 71.285156 57.398438 76.613281 57.421875 C 85.210938 57.457031 93.808594 57.425781 102.40625 57.40625 C 105.078125 57.398438 107.75 57.328125 110.421875 57.304688 C 115.511719 57.253906 120.601562 57.191406 125.695312 57.171875 C 128.839844 57.164062 131.992188 57.214844 135.136719 57.257812 C 139.152344 57.316406 143.164062 57.390625 147.816406 57.476562 M 219.972656 28.511719 C 217.925781 28.066406 215.84375 27.648438 213.855469 27.171875 C 213.011719 26.96875 211.710938 26.625 211.777344 26.386719 C 211.871094 26.03125 212.875 25.675781 213.671875 25.390625 C 215.457031 24.753906 217.640625 24.246094 219.160156 23.535156 C 225.304688 20.648438 227.496094 17.316406 225.726562 13.683594 C 223.328125 8.761719 211.996094 4.535156 197.175781 4.945312 C 188.507812 5.1875 180.675781 6.472656 173.613281 8.421875 C 171.515625 9 170.933594 9.648438 172.246094 10.492188 C 173.6875 11.421875 175.269531 12.320312 176.683594 13.253906 C 178.402344 14.386719 180.539062 14.386719 183.148438 13.714844 C 185.59375 13.082031 187.996094 12.398438 190.636719 11.910156 C 196.238281 10.867188 200.941406 11.207031 204.679688 12.945312 C 209.214844 15.0625 209.472656 17.472656 207.121094 19.945312 C 205.191406 21.980469 201.265625 23.035156 195.496094 23.074219 C 194.792969 23.078125 194.089844 23.15625 193.394531 23.210938 C 191.3125 23.371094 189.980469 23.78125 189.914062 24.65625 C 189.820312 25.820312 189.648438 26.988281 189.511719 28.152344 C 189.382812 29.292969 190.707031 29.847656 193.832031 29.996094 C 199.769531 30.273438 204.542969 31.308594 207.546875 33.375 C 211.230469 35.90625 210.578125 38.503906 208.199219 41.0625 C 204.160156 45.40625 193.625 46.050781 185.523438 44.320312 C 178.296875 42.773438 177.320312 42.839844 173.730469 45.707031 C 173.378906 45.988281 173.109375 46.289062 172.800781 46.578125 C 170.902344 48.386719 171.832031 49.214844 176.351562 50.183594 C 181.335938 51.25 186.734375 51.648438 192.320312 51.847656 C 201.457031 52.167969 209.644531 51.269531 216.792969 49.089844 C 232.699219 44.234375 232.839844 33.953125 219.972656 28.511719 M 372.546875 61.695312 C 372.523438 65.652344 372.574219 69.609375 372.433594 73.5625 C 372.382812 74.964844 374.882812 74.714844 377.042969 74.761719 C 379.3125 74.8125 381.347656 74.828125 381.226562 73.570312 C 381.046875 71.773438 381.300781 69.972656 381.09375 68.175781 C 380.964844 67.085938 381.777344 66.660156 384.835938 66.699219 C 393.933594 66.820312 392.382812 66.238281 392.46875 69.636719 C 392.511719 71.324219 392.476562 73.007812 392.476562 74.761719 C 394.65625 74.761719 396.195312 74.730469 397.722656 74.769531 C 400.152344 74.832031 401.121094 74.453125 401.105469 73.515625 C 401.015625 68.078125 400.976562 62.636719 401.027344 57.199219 C 401.039062 56.113281 400.457031 55.519531 397.078125 55.601562 C 392.019531 55.71875 391.914062 55.671875 391.902344 57.289062 C 391.886719 59.296875 391.898438 61.308594 391.898438 63.457031 C 388.742188 63.457031 385.910156 63.523438 383.125 63.414062 C 382.359375 63.382812 381.191406 62.820312 381.15625 62.488281 C 380.980469 60.917969 381.128906 59.34375 381.175781 57.769531 C 381.242188 55.585938 381.246094 55.636719 375.648438 55.597656 C 373.097656 55.578125 372.332031 55.917969 372.4375 56.839844 C 372.605469 58.367188 372.523438 59.898438 372.546875 61.695312 M 171.511719 62.519531 C 171.355469 66.0625 171.375 69.613281 170.953125 73.152344 C 170.773438 74.664062 172.558594 74.773438 175.796875 74.808594 C 179.199219 74.839844 179.699219 74.316406 179.578125 73.222656 C 179.375 71.367188 179.523438 69.503906 179.523438 67.644531 C 180.882812 67.90625 181.441406 68.21875 181.867188 68.554688 C 184.117188 70.332031 186.300781 72.125 188.597656 73.898438 C 189.015625 74.222656 189.796875 74.683594 190.507812 74.710938 C 193.140625 74.804688 195.816406 74.75 199.09375 74.75 C 198.34375 74 197.953125 73.496094 197.351562 73.03125 C 195.261719 71.421875 193.246094 69.792969 190.90625 68.234375 C 189.167969 67.078125 188.613281 66.136719 191.984375 65.265625 C 193.007812 65 193.726562 64.535156 194.417969 64.117188 C 197.640625 62.1875 197.390625 60.164062 194.777344 58.222656 C 192.289062 56.375 187.941406 55.578125 182.460938 55.640625 C 180.09375 55.667969 177.707031 55.679688 175.351562 55.605469 C 172.496094 55.511719 171.269531 55.855469 171.421875 57.019531 C 171.652344 58.761719 171.5 60.507812 171.511719 62.519531 M 253.882812 74.574219 C 257.171875 74.566406 260.484375 74.644531 263.730469 74.5 C 264.707031 74.457031 266.207031 73.8125 266.246094 73.425781 C 266.496094 70.910156 266.375 68.390625 266.453125 65.871094 C 266.480469 65.101562 265.507812 64.832031 263.636719 64.839844 C 261.023438 64.851562 258.414062 64.839844 255.800781 64.839844 C 254.042969 64.839844 252.710938 65.035156 252.898438 65.839844 C 253.0625 66.539062 252.136719 67.429688 255.394531 67.566406 C 256.300781 67.605469 257.699219 68.0625 257.796875 68.375 C 258.105469 69.378906 257.914062 70.40625 257.914062 71.441406 C 253.636719 71.75 250.667969 71.101562 248.976562 69.878906 C 244.914062 66.9375 243.957031 63.878906 248.472656 60.871094 C 250.875 59.273438 254.550781 58.425781 259.738281 58.761719 C 261.675781 58.886719 263.714844 58.78125 265.6875 58.78125 C 267.121094 56.417969 266.082031 55.335938 261.789062 55.445312 C 257.3125 55.558594 252.425781 55.8125 248.589844 56.613281 C 238.984375 58.609375 234.453125 62.988281 236.910156 67.171875 C 238.96875 70.683594 243.042969 73.609375 253.882812 74.574219 M 215.902344 59.667969 C 216.875 59.378906 217.75 58.957031 218.851562 58.832031 C 220.164062 58.6875 221.675781 58.796875 223.101562 58.796875 C 228.761719 58.792969 229.148438 58.605469 228.53125 56.441406 C 228.300781 55.636719 227.296875 55.371094 225.257812 55.410156 C 220.40625 55.5 215.546875 55.585938 210.691406 55.585938 C 208.234375 55.585938 207.078125 55.785156 207.074219 56.851562 C 207.0625 60.539062 206.742188 64.222656 206.628906 67.910156 C 206.578125 69.574219 206.761719 71.238281 206.792969 72.898438 C 206.816406 74.085938 208.339844 74.550781 211.4375 74.507812 C 215.589844 74.453125 219.75 74.457031 223.902344 74.507812 C 227.1875 74.546875 228.734375 74.101562 228.566406 72.777344 C 228.367188 71.183594 227.667969 70.828125 223.671875 70.804688 C 221.121094 70.792969 218.566406 70.800781 215.929688 70.800781 C 215.851562 70.21875 215.773438 69.867188 215.765625 69.511719 C 215.683594 66.066406 215.6875 66.066406 224.679688 65.910156 C 224.796875 65.910156 224.917969 65.910156 225.035156 65.910156 C 229.078125 65.910156 227.703125 64.734375 227.925781 63.945312 C 228.160156 63.109375 227.503906 62.5625 224.785156 62.628906 C 221.882812 62.703125 218.960938 62.648438 215.832031 62.648438 C 215.832031 61.609375 215.832031 60.761719 215.902344 59.667969 M 324.269531 70.804688 C 321.949219 70.804688 319.625 70.804688 317.402344 70.804688 C 315.6875 66.191406 315.933594 65.996094 325.816406 65.9375 C 329.652344 65.914062 329.132812 65.019531 329.210938 64.128906 C 329.289062 63.234375 329.058594 62.523438 325.820312 62.632812 C 323.035156 62.726562 320.210938 62.652344 317.246094 62.652344 C 317.140625 62.148438 317.019531 61.800781 317.003906 61.453125 C 316.890625 58.796875 316.898438 58.796875 323.917969 58.796875 C 330.089844 58.796875 330.589844 58.621094 329.644531 56.351562 C 329.496094 56 327.960938 55.464844 327.058594 55.460938 C 321.621094 55.441406 316.175781 55.515625 310.75 55.65625 C 309.921875 55.679688 308.515625 56.203125 308.507812 56.5 C 308.355469 62.058594 308.425781 67.621094 308.316406 73.183594 C 308.292969 74.246094 309.746094 74.488281 312.039062 74.492188 C 316.308594 74.496094 320.574219 74.480469 324.84375 74.5 C 327.558594 74.511719 329.824219 74.429688 329.820312 73.039062 C 329.816406 71.234375 329.285156 70.929688 324.269531 70.804688 M 358.105469 74.667969 C 359.964844 74.597656 361.824219 74.523438 363.589844 74.457031 C 365.40625 71.585938 365.394531 71.550781 358.277344 71.621094 C 353.730469 71.664062 350.613281 70.925781 348.5625 69.417969 C 345.773438 67.363281 345.332031 65.179688 346.558594 62.992188 C 347.878906 60.644531 351.492188 58.445312 360.976562 58.820312 C 361.878906 58.859375 362.808594 58.796875 364.132812 58.777344 C 364.132812 58.175781 364.144531 57.648438 364.128906 57.121094 C 364.089844 55.757812 363.058594 55.339844 359.441406 55.425781 C 352.753906 55.589844 347.023438 56.558594 342.875 58.609375 C 337.429688 61.296875 336.859375 64.40625 338.234375 67.582031 C 340.226562 72.179688 345.625 74.082031 358.105469 74.667969 M 291.308594 67.90625 C 291.320312 65.746094 291.335938 63.589844 291.34375 61.433594 C 291.351562 59.082031 291.339844 59.066406 297.566406 58.796875 C 301.375 58.632812 299.605469 57.539062 299.921875 56.8125 C 300.21875 56.140625 299.984375 55.585938 297.453125 55.601562 C 290.691406 55.648438 283.929688 55.601562 277.167969 55.640625 C 276.300781 55.644531 274.992188 55.871094 274.65625 56.136719 C 272.773438 57.605469 274.824219 58.859375 279.09375 58.769531 C 282.257812 58.707031 283.140625 59.09375 283.085938 60.289062 C 282.882812 64.691406 283.089844 69.097656 282.886719 73.5 C 282.820312 74.972656 285.199219 74.722656 287.546875 74.777344 C 290.222656 74.84375 291.460938 74.550781 291.335938 73.433594 C 291.136719 71.683594 291.296875 69.929688 291.308594 67.90625 Z M 291.308594 67.90625 "/>
<path style=" stroke:none;fill-rule:nonzero;fill:rgb(40%,84.313725%,83.921569%);fill-opacity:1;" d="M 373.945312 51.585938 C 359.648438 53.128906 346.554688 50.410156 340.644531 44.773438 C 336.445312 40.765625 334.464844 36.582031 334.109375 32.300781 C 333.828125 28.898438 333.511719 25.46875 334.207031 22.082031 C 335.09375 17.773438 337.84375 13.613281 343.875 9.820312 C 354.816406 2.929688 378.378906 3.425781 389.496094 9.574219 C 395.203125 12.730469 397.9375 16.28125 399.519531 19.980469 C 402.136719 26.117188 401.46875 32.246094 398.101562 38.3125 C 396.070312 41.96875 393.128906 45.523438 386.441406 48.445312 C 383.09375 49.910156 379.035156 50.9375 373.945312 51.585938 M 377.0625 39.605469 C 377.714844 38.058594 378.917969 36.515625 378.917969 34.96875 C 378.914062 29.59375 378.785156 24.214844 378.097656 18.847656 C 377.824219 16.726562 376.335938 14.566406 371.757812 13.015625 C 368 11.746094 363.65625 11.800781 360.613281 13.308594 C 358.9375 14.140625 357.453125 15.167969 356.992188 16.179688 C 355.683594 19.039062 354.382812 21.929688 354.136719 24.824219 C 353.828125 28.402344 354.101562 32.015625 355.035156 35.578125 C 355.703125 38.132812 357.625 40.660156 359.472656 43.144531 C 360.285156 44.242188 362.679688 45.042969 366.054688 45.109375 C 369.589844 45.183594 371.964844 44.421875 373.382812 43.324219 C 374.828125 42.207031 375.769531 40.996094 377.0625 39.605469 Z M 377.0625 39.605469 "/>
<path style=" stroke:none;fill-rule:nonzero;fill:rgb(39.607843%,84.313725%,83.921569%);fill-opacity:1;" d="M 274.675781 51.523438 C 259.578125 49.90625 252.414062 45.730469 248.605469 40.472656 C 245.679688 36.429688 246.722656 32.335938 248.828125 28.324219 C 252.722656 20.894531 260.324219 14.015625 271.285156 7.664062 C 274.054688 6.058594 277.367188 5.148438 282.703125 5.332031 C 286.824219 5.472656 291.007812 5.328125 295.160156 5.371094 C 298.789062 5.410156 299.773438 6.003906 297.828125 7.15625 C 292.714844 10.175781 287.226562 13.105469 282.203125 16.144531 C 279.007812 18.078125 276.300781 20.128906 273.53125 22.160156 C 272.871094 22.644531 272.832031 23.253906 272.285156 24.179688 C 274.808594 23.875 276.511719 23.691406 278.175781 23.46875 C 286.589844 22.332031 294.316406 23.125 300.824219 25.125 C 312.390625 28.679688 315.5625 33.601562 313.757812 38.949219 C 312.160156 43.675781 306.664062 47.652344 295.289062 50.199219 C 288.898438 51.628906 282.03125 51.699219 274.675781 51.523438 M 273.703125 43.328125 C 281.109375 44.714844 288.753906 43.953125 291.464844 41.414062 C 294.503906 38.566406 294.433594 35.625 291.683594 32.742188 C 290.113281 31.097656 285.535156 29.992188 281.199219 30 C 275.476562 30.007812 270.953125 30.921875 269.800781 32.914062 C 268.605469 34.976562 268.636719 37.160156 268.582031 39.289062 C 268.539062 40.808594 270.074219 42.179688 273.703125 43.328125 Z M 273.703125 43.328125 "/>
<path style=" stroke:none;fill-rule:nonzero;fill:rgb(40.392157%,84.705882%,84.313725%);fill-opacity:1;" d="M 147.496094 57.46875 C 143.164062 57.390625 139.152344 57.316406 135.136719 57.257812 C 131.992188 57.214844 128.839844 57.164062 125.695312 57.171875 C 120.601562 57.191406 115.511719 57.253906 110.421875 57.304688 C 107.75 57.328125 105.078125 57.398438 102.40625 57.40625 C 93.808594 57.425781 85.210938 57.457031 76.613281 57.421875 C 71.285156 57.398438 65.964844 57.253906 60.34375 57.15625 C 58.625 56.246094 58.289062 55.238281 58.839844 54.011719 C 59.550781 52.425781 59.578125 50.78125 59.550781 49.167969 C 59.539062 48.375 58.523438 47.589844 58.378906 46.792969 C 58.292969 46.3125 59.011719 45.808594 59.367188 45.316406 C 59.492188 45.148438 59.855469 44.9375 59.707031 44.816406 C 56.734375 42.386719 58.339844 39.824219 58.265625 37.324219 C 58.214844 35.496094 58.738281 33.671875 58.804688 31.84375 C 58.878906 29.757812 58.707031 27.671875 58.699219 25.585938 C 58.695312 24.972656 58.917969 24.359375 58.976562 23.746094 C 59.023438 23.207031 58.984375 22.667969 58.984375 22.003906 C 61.050781 22.066406 63.390625 22.136719 65.726562 22.210938 C 66.488281 22.234375 67.328125 22.363281 67.996094 22.28125 C 73.015625 21.667969 77.980469 22.125 83.011719 22.246094 C 87.835938 22.363281 92.714844 22.152344 97.566406 22.085938 C 101.765625 22.027344 105.960938 21.9375 110.160156 21.914062 C 115.636719 21.886719 121.117188 21.875 126.589844 21.921875 C 131.863281 21.972656 137.125 22.125 142.398438 22.195312 C 144.914062 22.230469 147.441406 22.195312 149.960938 22.148438 C 152.144531 22.109375 152.511719 22.570312 152.433594 23.253906 C 152.144531 25.671875 151.757812 28.089844 151.683594 30.507812 C 151.554688 34.808594 151.621094 39.109375 151.621094 43.410156 C 151.621094 47.640625 151.53125 51.867188 151.71875 56.097656 C 151.769531 57.269531 150.664062 57.640625 147.496094 57.46875 M 75.3125 29.476562 C 83.921875 28.425781 90.589844 29.640625 96.160156 32.074219 C 97.550781 32.679688 98.6875 33.371094 99.984375 34.007812 C 103.296875 35.640625 106.410156 37.339844 110.03125 38.871094 C 113.078125 40.15625 117.242188 40.5625 121.753906 40.101562 C 130.011719 39.261719 136.488281 35.730469 135.046875 32.570312 C 133.726562 29.667969 129.910156 27.3125 122.804688 25.816406 C 115.859375 24.359375 108.410156 24.015625 100.761719 24.324219 C 90.398438 24.742188 81.40625 26.292969 74.371094 29.460938 C 74.398438 29.515625 74.425781 29.570312 74.453125 29.621094 C 74.539062 29.5625 74.625 29.503906 75.3125 29.476562 M 145.292969 46.03125 C 148.730469 41.816406 147.890625 37.78125 141.9375 33.921875 C 141.796875 38.003906 135.152344 39.957031 125.996094 41.058594 C 121.609375 41.585938 117.085938 41.949219 112.660156 42.429688 C 104.609375 43.308594 99.632812 45.148438 99.707031 47.457031 C 99.78125 49.746094 102.0625 51.777344 106.910156 53.21875 C 114.019531 55.332031 125.746094 55.15625 133.375 52.960938 C 139.375 51.234375 142.945312 48.910156 145.292969 46.03125 M 73.699219 34.8125 C 66.234375 36.796875 62.1875 40.679688 64.402344 44.074219 C 67.628906 49.019531 76.191406 52.265625 88.148438 54.296875 C 92.941406 55.113281 98.019531 55.613281 104.183594 55.304688 C 93.574219 53.089844 93.1875 49.730469 95.269531 46.085938 C 96.273438 44.335938 97.683594 42.617188 98.617188 40.863281 C 100.234375 37.820312 97.234375 35.257812 91.074219 34.445312 C 85.40625 33.699219 79.691406 33.675781 73.699219 34.8125 Z M 73.699219 34.8125 "/>
<path style=" stroke:none;fill-rule:nonzero;fill:rgb(40%,84.705882%,84.313725%);fill-opacity:1;" d="M 220.148438 28.582031 C 232.839844 33.953125 232.699219 44.234375 216.792969 49.089844 C 209.644531 51.269531 201.457031 52.167969 192.320312 51.847656 C 186.734375 51.648438 181.335938 51.25 176.351562 50.183594 C 171.832031 49.214844 170.902344 48.386719 172.800781 46.578125 C 173.109375 46.289062 173.378906 45.988281 173.730469 45.707031 C 177.320312 42.839844 178.296875 42.773438 185.523438 44.320312 C 193.625 46.050781 204.160156 45.40625 208.199219 41.0625 C 210.578125 38.503906 211.230469 35.90625 207.546875 33.375 C 204.542969 31.308594 199.769531 30.273438 193.832031 29.996094 C 190.707031 29.847656 189.382812 29.292969 189.511719 28.152344 C 189.648438 26.988281 189.820312 25.820312 189.914062 24.65625 C 189.980469 23.78125 191.3125 23.371094 193.394531 23.210938 C 194.089844 23.15625 194.792969 23.078125 195.496094 23.074219 C 201.265625 23.035156 205.191406 21.980469 207.121094 19.945312 C 209.472656 17.472656 209.214844 15.0625 204.679688 12.945312 C 200.941406 11.207031 196.238281 10.867188 190.636719 11.910156 C 187.996094 12.398438 185.59375 13.082031 183.148438 13.714844 C 180.539062 14.386719 178.402344 14.386719 176.683594 13.253906 C 175.269531 12.320312 173.6875 11.421875 172.246094 10.492188 C 170.933594 9.648438 171.515625 9 173.613281 8.421875 C 180.675781 6.472656 188.507812 5.1875 197.175781 4.945312 C 211.996094 4.535156 223.328125 8.761719 225.726562 13.683594 C 227.496094 17.316406 225.304688 20.648438 219.160156 23.535156 C 217.640625 24.246094 215.457031 24.753906 213.671875 25.390625 C 212.875 25.675781 211.871094 26.03125 211.777344 26.386719 C 211.710938 26.625 213.011719 26.96875 213.855469 27.171875 C 215.84375 27.648438 217.925781 28.066406 220.148438 28.582031 Z M 220.148438 28.582031 "/>
<path style=" stroke:none;fill-rule:nonzero;fill:rgb(40.784314%,84.705882%,84.313725%);fill-opacity:1;" d="M 372.546875 61.558594 C 372.523438 59.898438 372.605469 58.367188 372.4375 56.839844 C 372.332031 55.917969 373.097656 55.578125 375.648438 55.597656 C 381.246094 55.636719 381.242188 55.585938 381.175781 57.769531 C 381.128906 59.34375 380.980469 60.917969 381.15625 62.488281 C 381.191406 62.820312 382.359375 63.382812 383.125 63.414062 C 385.910156 63.523438 388.742188 63.457031 391.898438 63.457031 C 391.898438 61.308594 391.886719 59.296875 391.902344 57.289062 C 391.914062 55.671875 392.019531 55.71875 397.078125 55.601562 C 400.457031 55.519531 401.039062 56.113281 401.027344 57.199219 C 400.976562 62.636719 401.015625 68.078125 401.105469 73.515625 C 401.121094 74.453125 400.152344 74.832031 397.722656 74.769531 C 396.195312 74.730469 394.65625 74.761719 392.476562 74.761719 C 392.476562 73.007812 392.511719 71.324219 392.46875 69.636719 C 392.382812 66.238281 393.933594 66.820312 384.835938 66.699219 C 381.777344 66.660156 380.964844 67.085938 381.09375 68.175781 C 381.300781 69.972656 381.046875 71.773438 381.226562 73.570312 C 381.347656 74.828125 379.3125 74.8125 377.042969 74.761719 C 374.882812 74.714844 372.382812 74.964844 372.433594 73.5625 C 372.574219 69.609375 372.523438 65.652344 372.546875 61.558594 Z M 372.546875 61.558594 "/>
<path style=" stroke:none;fill-rule:nonzero;fill:rgb(40.392157%,84.705882%,84.313725%);fill-opacity:1;" d="M 171.511719 62.386719 C 171.5 60.507812 171.652344 58.761719 171.421875 57.019531 C 171.269531 55.855469 172.496094 55.511719 175.351562 55.605469 C 177.707031 55.679688 180.09375 55.667969 182.460938 55.640625 C 187.941406 55.578125 192.289062 56.375 194.777344 58.222656 C 197.390625 60.164062 197.640625 62.1875 194.417969 64.117188 C 193.726562 64.535156 193.007812 65 191.984375 65.265625 C 188.613281 66.136719 189.167969 67.078125 190.90625 68.234375 C 193.246094 69.792969 195.261719 71.421875 197.351562 73.03125 C 197.953125 73.496094 198.34375 74 199.09375 74.75 C 195.816406 74.75 193.140625 74.804688 190.507812 74.710938 C 189.796875 74.683594 189.015625 74.222656 188.597656 73.898438 C 186.300781 72.125 184.117188 70.332031 181.867188 68.554688 C 181.441406 68.21875 180.882812 67.90625 179.523438 67.644531 C 179.523438 69.503906 179.375 71.367188 179.578125 73.222656 C 179.699219 74.316406 179.199219 74.839844 175.796875 74.808594 C 172.558594 74.773438 170.773438 74.664062 170.953125 73.152344 C 171.375 69.613281 171.355469 66.0625 171.511719 62.386719 M 179.523438 60.921875 C 179.523438 61.816406 179.519531 62.710938 179.523438 63.601562 C 179.53125 64.492188 180.800781 64.660156 182.796875 64.429688 C 187.066406 63.941406 189.273438 61.789062 187.226562 60.125 C 186.109375 59.214844 184.28125 58.691406 181.632812 58.839844 C 178.609375 59.007812 179.804688 59.984375 179.523438 60.921875 Z M 179.523438 60.921875 "/>
<path style=" stroke:none;fill-rule:nonzero;fill:rgb(40.784314%,84.705882%,84.313725%);fill-opacity:1;" d="M 253.585938 74.554688 C 243.042969 73.609375 238.96875 70.683594 236.910156 67.171875 C 234.453125 62.988281 238.984375 58.609375 248.589844 56.613281 C 252.425781 55.8125 257.3125 55.558594 261.789062 55.445312 C 266.082031 55.335938 267.121094 56.417969 265.6875 58.78125 C 263.714844 58.78125 261.675781 58.886719 259.738281 58.761719 C 254.550781 58.425781 250.875 59.273438 248.472656 60.871094 C 243.957031 63.878906 244.914062 66.9375 248.976562 69.878906 C 250.667969 71.101562 253.636719 71.75 257.914062 71.441406 C 257.914062 70.40625 258.105469 69.378906 257.796875 68.375 C 257.699219 68.0625 256.300781 67.605469 255.394531 67.566406 C 252.136719 67.429688 253.0625 66.539062 252.898438 65.839844 C 252.710938 65.035156 254.042969 64.839844 255.800781 64.839844 C 258.414062 64.839844 261.023438 64.851562 263.636719 64.839844 C 265.507812 64.832031 266.480469 65.101562 266.453125 65.871094 C 266.375 68.390625 266.496094 70.910156 266.246094 73.425781 C 266.207031 73.8125 264.707031 74.457031 263.730469 74.5 C 260.484375 74.644531 257.171875 74.566406 253.585938 74.554688 Z M 253.585938 74.554688 "/>
<path style=" stroke:none;fill-rule:nonzero;fill:rgb(41.176471%,84.705882%,84.313725%);fill-opacity:1;" d="M 215.867188 59.789062 C 215.832031 60.761719 215.832031 61.609375 215.832031 62.648438 C 218.960938 62.648438 221.882812 62.703125 224.785156 62.628906 C 227.503906 62.5625 228.160156 63.109375 227.925781 63.945312 C 227.703125 64.734375 229.078125 65.910156 225.035156 65.910156 C 224.917969 65.910156 224.796875 65.910156 224.679688 65.910156 C 215.6875 66.066406 215.683594 66.066406 215.765625 69.511719 C 215.773438 69.867188 215.851562 70.21875 215.929688 70.800781 C 218.566406 70.800781 221.121094 70.792969 223.671875 70.804688 C 227.667969 70.828125 228.367188 71.183594 228.566406 72.777344 C 228.734375 74.101562 227.1875 74.546875 223.902344 74.507812 C 219.75 74.457031 215.589844 74.453125 211.4375 74.507812 C 208.339844 74.550781 206.816406 74.085938 206.792969 72.898438 C 206.761719 71.238281 206.578125 69.574219 206.628906 67.910156 C 206.742188 64.222656 207.0625 60.539062 207.074219 56.851562 C 207.078125 55.785156 208.234375 55.585938 210.691406 55.585938 C 215.546875 55.585938 220.40625 55.5 225.257812 55.410156 C 227.296875 55.371094 228.300781 55.636719 228.53125 56.441406 C 229.148438 58.605469 228.761719 58.792969 223.101562 58.796875 C 221.675781 58.796875 220.164062 58.6875 218.851562 58.832031 C 217.75 58.957031 216.875 59.378906 215.867188 59.789062 Z M 215.867188 59.789062 "/>
<path style=" stroke:none;fill-rule:nonzero;fill:rgb(40.784314%,84.705882%,84.313725%);fill-opacity:1;" d="M 324.59375 70.804688 C 329.285156 70.929688 329.816406 71.234375 329.820312 73.039062 C 329.824219 74.429688 327.558594 74.511719 324.84375 74.5 C 320.574219 74.480469 316.308594 74.496094 312.039062 74.492188 C 309.746094 74.488281 308.292969 74.246094 308.316406 73.183594 C 308.425781 67.621094 308.355469 62.058594 308.507812 56.5 C 308.515625 56.203125 309.921875 55.679688 310.75 55.65625 C 316.175781 55.515625 321.621094 55.441406 327.058594 55.460938 C 327.960938 55.464844 329.496094 56 329.644531 56.351562 C 330.589844 58.621094 330.089844 58.796875 323.917969 58.796875 C 316.898438 58.796875 316.890625 58.796875 317.003906 61.453125 C 317.019531 61.800781 317.140625 62.148438 317.246094 62.652344 C 320.210938 62.652344 323.035156 62.726562 325.820312 62.632812 C 329.058594 62.523438 329.289062 63.234375 329.210938 64.128906 C 329.132812 65.019531 329.652344 65.914062 325.816406 65.9375 C 315.933594 65.996094 315.6875 66.191406 317.402344 70.804688 C 319.625 70.804688 321.949219 70.804688 324.59375 70.804688 Z M 324.59375 70.804688 "/>
<path style=" stroke:none;fill-rule:nonzero;fill:rgb(40.784314%,84.705882%,84.313725%);fill-opacity:1;" d="M 357.820312 74.644531 C 345.625 74.082031 340.226562 72.179688 338.234375 67.582031 C 336.859375 64.40625 337.429688 61.296875 342.875 58.609375 C 347.023438 56.558594 352.753906 55.589844 359.441406 55.425781 C 363.058594 55.339844 364.089844 55.757812 364.128906 57.121094 C 364.144531 57.648438 364.132812 58.175781 364.132812 58.777344 C 362.808594 58.796875 361.878906 58.859375 360.976562 58.820312 C 351.492188 58.445312 347.878906 60.644531 346.558594 62.992188 C 345.332031 65.179688 345.773438 67.363281 348.5625 69.417969 C 350.613281 70.925781 353.730469 71.664062 358.277344 71.621094 C 365.394531 71.550781 365.40625 71.585938 363.589844 74.457031 C 361.824219 74.523438 359.964844 74.597656 357.820312 74.644531 Z M 357.820312 74.644531 "/>
<path style=" stroke:none;fill-rule:nonzero;fill:rgb(41.176471%,84.705882%,84.313725%);fill-opacity:1;" d="M 291.308594 68.039062 C 291.296875 69.929688 291.136719 71.683594 291.335938 73.433594 C 291.460938 74.550781 290.222656 74.84375 287.546875 74.777344 C 285.199219 74.722656 282.820312 74.972656 282.886719 73.5 C 283.089844 69.097656 282.882812 64.691406 283.085938 60.289062 C 283.140625 59.09375 282.257812 58.707031 279.09375 58.769531 C 274.824219 58.859375 272.773438 57.605469 274.65625 56.136719 C 274.992188 55.871094 276.300781 55.644531 277.167969 55.640625 C 283.929688 55.601562 290.691406 55.648438 297.453125 55.601562 C 299.984375 55.585938 300.21875 56.140625 299.921875 56.8125 C 299.605469 57.539062 301.375 58.632812 297.566406 58.796875 C 291.339844 59.066406 291.351562 59.082031 291.34375 61.433594 C 291.335938 63.589844 291.320312 65.746094 291.308594 68.039062 Z M 291.308594 68.039062 "/>
<path style=" stroke:none;fill-rule:nonzero;fill:rgb(99.215686%,100%,100%);fill-opacity:1;" d="M 376.996094 39.714844 C 375.769531 40.996094 374.828125 42.207031 373.382812 43.324219 C 371.964844 44.421875 369.589844 45.183594 366.054688 45.109375 C 362.679688 45.042969 360.285156 44.242188 359.472656 43.144531 C 357.625 40.660156 355.703125 38.132812 355.035156 35.578125 C 354.101562 32.015625 353.828125 28.402344 354.136719 24.824219 C 354.382812 21.929688 355.683594 19.039062 356.992188 16.179688 C 357.453125 15.167969 358.9375 14.140625 360.613281 13.308594 C 363.65625 11.800781 368 11.746094 371.757812 13.015625 C 376.335938 14.566406 377.824219 16.726562 378.097656 18.847656 C 378.785156 24.214844 378.914062 29.59375 378.917969 34.96875 C 378.917969 36.515625 377.714844 38.058594 376.996094 39.714844 Z M 376.996094 39.714844 "/>
<path style=" stroke:none;fill-rule:nonzero;fill:rgb(99.215686%,100%,100%);fill-opacity:1;" d="M 273.496094 43.261719 C 270.074219 42.179688 268.539062 40.808594 268.582031 39.289062 C 268.636719 37.160156 268.605469 34.976562 269.800781 32.914062 C 270.953125 30.921875 275.476562 30.007812 281.199219 30 C 285.535156 29.992188 290.113281 31.097656 291.683594 32.742188 C 294.433594 35.625 294.503906 38.566406 291.464844 41.414062 C 288.753906 43.953125 281.109375 44.714844 273.496094 43.261719 Z M 273.496094 43.261719 "/>
<path style=" stroke:none;fill-rule:nonzero;fill:rgb(99.215686%,100%,100%);fill-opacity:1;" d="M 145.25 46.140625 C 142.945312 48.910156 139.375 51.234375 133.375 52.960938 C 125.746094 55.15625 114.019531 55.332031 106.910156 53.21875 C 102.0625 51.777344 99.78125 49.746094 99.707031 47.457031 C 99.632812 45.148438 104.609375 43.308594 112.660156 42.429688 C 117.085938 41.949219 121.609375 41.585938 125.996094 41.058594 C 135.152344 39.957031 141.796875 38.003906 141.9375 33.921875 C 147.890625 37.78125 148.730469 41.816406 145.25 46.140625 Z M 145.25 46.140625 "/>
<path style=" stroke:none;fill-rule:nonzero;fill:rgb(99.215686%,100%,100%);fill-opacity:1;" d="M 73.925781 34.757812 C 79.691406 33.675781 85.40625 33.699219 91.074219 34.445312 C 97.234375 35.257812 100.234375 37.820312 98.617188 40.863281 C 97.683594 42.617188 96.273438 44.335938 95.269531 46.085938 C 93.1875 49.730469 93.574219 53.089844 104.183594 55.304688 C 98.019531 55.613281 92.941406 55.113281 88.148438 54.296875 C 76.191406 52.265625 67.628906 49.019531 64.402344 44.074219 C 62.1875 40.679688 66.234375 36.796875 73.925781 34.757812 Z M 73.925781 34.757812 "/>
<path style=" stroke:none;fill-rule:nonzero;fill:rgb(99.215686%,100%,100%);fill-opacity:1;" d="M 74.652344 29.425781 C 81.40625 26.292969 90.398438 24.742188 100.761719 24.324219 C 108.410156 24.015625 115.859375 24.359375 122.804688 25.816406 C 129.910156 27.3125 133.726562 29.667969 135.046875 32.570312 C 136.488281 35.730469 130.011719 39.261719 121.753906 40.101562 C 117.242188 40.5625 113.078125 40.15625 110.03125 38.871094 C 106.410156 37.339844 103.296875 35.640625 99.984375 34.007812 C 98.6875 33.371094 97.550781 32.679688 96.160156 32.074219 C 90.589844 29.640625 83.921875 28.425781 75 29.457031 C 74.683594 29.433594 74.652344 29.425781 74.652344 29.425781 Z M 74.652344 29.425781 "/>
<path style=" stroke:none;fill-rule:nonzero;fill:rgb(99.215686%,100%,100%);fill-opacity:1;" d="M 74.699219 29.441406 C 74.625 29.503906 74.539062 29.5625 74.453125 29.621094 C 74.425781 29.570312 74.398438 29.515625 74.511719 29.441406 C 74.652344 29.425781 74.683594 29.433594 74.699219 29.441406 Z M 74.699219 29.441406 "/>
<path style=" stroke:none;fill-rule:nonzero;fill:rgb(97.254902%,99.215686%,99.215686%);fill-opacity:1;" d="M 179.527344 60.796875 C 179.804688 59.984375 178.609375 59.007812 181.632812 58.839844 C 184.28125 58.691406 186.109375 59.214844 187.226562 60.125 C 189.273438 61.789062 187.066406 63.941406 182.796875 64.429688 C 180.800781 64.660156 179.53125 64.492188 179.523438 63.601562 C 179.519531 62.710938 179.523438 61.816406 179.527344 60.796875 Z M 179.527344 60.796875 "/>
</g>
</svg>
