<svg version="1.1" id="Layer_1" xmlns="http://www.w3.org/2000/svg" xmlns:xlink="http://www.w3.org/1999/xlink" x="152px" y="25px"
	 width="152px" height="65px" viewBox="0 0 594 300" enable-background=" white" xml:space="preserve">
<path fill="#FEFFFF" opacity="1.000000" stroke="none" 
	d="
M451.000000,301.000000 
	C300.708527,301.000000 150.917068,301.000000 1.062801,301.000000 
	C1.062801,201.069839 1.062801,101.139641 1.062801,1.104715 
	C198.999969,1.104715 396.999969,1.104715 594.979675,1.104715 
	C594.979675,101.082970 594.979675,201.041489 594.979675,301.000000 
	C547.139587,301.000000 499.319794,301.000000 451.000000,301.000000 
M471.291992,190.963943 
	C478.048401,188.664307 483.740143,184.847443 488.440430,179.426544 
	C497.822235,168.606430 501.948303,155.444107 504.797791,141.891861 
	C509.521454,119.425659 510.461639,96.729164 506.785309,73.997887 
	C504.569366,60.296547 500.728760,47.143661 492.724945,35.458439 
	C477.125793,12.684337 444.066376,10.857549 428.711395,36.366802 
	C420.250610,50.422703 416.390625,65.820518 415.148285,81.784798 
	C414.171814,94.332710 414.617401,107.026512 415.014099,119.637177 
	C415.512939,135.493042 418.288635,150.989365 424.180725,165.826401 
	C432.473328,186.708206 450.846680,196.767258 471.291992,190.963943 
M332.056915,190.885361 
	C341.941589,191.477066 351.575043,191.218414 360.544708,185.921051 
	C376.505035,176.495117 384.214661,161.766830 386.454620,144.259277 
	C388.988831,124.451942 384.537781,106.222534 368.308258,93.058624 
	C359.180878,85.655289 348.340485,82.710732 336.533081,86.915039 
	C334.197296,87.746765 331.808258,88.429138 328.265778,89.554657 
	C329.033600,86.121216 329.087891,83.870087 330.017517,82.071373 
	C333.902191,74.555283 337.698273,66.954933 342.181793,59.795666 
	C349.233002,48.536274 356.934448,37.685898 364.105225,26.498665 
	C366.835114,22.239698 365.454041,20.033194 360.360596,19.895075 
	C354.535828,19.737122 348.665955,20.265759 342.884125,19.741425 
	C335.397705,19.062510 330.753021,22.434507 326.863007,28.384018 
	C311.484741,51.904209 300.819397,77.391258 295.354218,104.898804 
	C292.400238,119.766983 290.935730,134.919464 295.043610,149.898819 
	C300.384460,169.374130 310.440704,184.840149 332.056915,190.885361 
M153.630402,212.883148 
	C157.622498,213.489227 159.174332,212.104340 159.102402,207.764954 
	C158.842804,192.107498 158.965393,176.443512 158.965958,160.781982 
	C158.966507,144.851624 158.874466,128.919937 159.055145,112.991447 
	C159.156799,104.031052 159.700073,95.074738 160.104630,86.119301 
	C160.218964,83.588364 159.700714,81.886696 156.635300,82.033684 
	C153.103104,82.203056 149.556335,82.328392 146.025162,82.205856 
	C138.629272,81.949211 131.242874,81.373871 123.846169,81.197380 
	C116.165993,81.014114 108.477097,81.062950 100.794220,81.169235 
	C94.902962,81.250732 89.015221,81.581779 83.125748,81.797295 
	C76.314896,82.046539 69.470261,82.820602 62.702187,82.391235 
	C55.644756,81.943512 48.675949,80.252495 41.633717,82.523476 
	C40.699051,82.824890 39.519276,82.344452 38.450542,82.255966 
	C35.171879,81.984535 31.892014,81.727615 28.992468,81.495468 
	C28.992468,83.960808 29.047462,85.956520 28.977955,87.947884 
	C28.898664,90.219528 28.585197,92.487503 28.588844,94.756721 
	C28.601265,102.483429 28.844475,110.211830 28.738588,117.936012 
	C28.645807,124.704338 27.908829,131.471100 27.984035,138.232681 
	C28.087141,147.502487 25.833076,156.980652 30.002962,165.980911 
	C30.211567,166.431152 29.702147,167.213058 29.529455,167.841187 
	C29.028347,169.663879 28.021259,171.521408 28.142366,173.302048 
	C28.343546,176.259979 29.768019,179.165573 29.786007,182.098663 
	C29.822725,188.085556 29.786110,194.164413 28.787472,200.036652 
	C28.014194,204.583694 28.488146,208.324234 30.899107,211.694656 
	C38.782719,212.046921 46.250900,212.581238 53.724316,212.668854 
	C65.785759,212.810303 77.850838,212.686615 89.913979,212.611877 
	C93.664238,212.588654 97.412476,212.332733 101.162964,212.233643 
	C108.304558,212.044937 115.446434,211.816284 122.589508,211.753036 
	C127.004562,211.713943 131.423538,211.909256 135.838089,212.071930 
	C141.471024,212.279465 147.101257,212.560226 153.630402,212.883148 
M254.868576,105.598778 
	C251.998825,103.956093 249.076187,102.397034 246.284302,100.631248 
	C245.100189,99.882332 243.280228,98.607285 243.368652,97.735634 
	C243.502426,96.417015 244.909622,95.090561 246.029251,94.036835 
	C248.535843,91.677826 251.598602,89.807487 253.727890,87.167847 
	C262.352356,76.476295 265.425232,64.135498 262.943298,50.682205 
	C259.578705,32.444164 243.677475,16.793978 222.883484,18.322973 
	C210.719742,19.217382 199.730591,23.973734 189.825348,31.185684 
	C186.882339,33.328472 186.063873,35.733433 187.906830,38.865402 
	C189.930359,42.304214 192.147705,45.630165 194.132721,49.090130 
	C196.541397,53.288502 199.542450,53.282234 203.201706,50.791588 
	C206.634537,48.455070 210.003510,45.926052 213.707748,44.107414 
	C221.568207,40.248249 228.165573,41.501419 233.410492,47.952641 
	C239.778015,55.784653 240.136230,64.717117 236.840073,73.877754 
	C234.132217,81.403351 228.619690,85.315819 220.527054,85.460579 
	C219.541061,85.478218 218.555511,85.762604 217.577988,85.963387 
	C214.658493,86.563065 212.789368,88.076347 212.693054,91.319740 
	C212.564819,95.637619 212.321884,99.952065 212.132858,104.268181 
	C211.947556,108.499222 213.807022,110.548004 218.189285,111.090546 
	C226.522263,112.122200 233.220337,115.959320 237.435486,123.606491 
	C242.602280,132.980087 241.687714,142.614075 238.351456,152.082047 
	C232.680573,168.175476 217.899796,170.551651 206.534103,164.144287 
	C196.392929,158.427246 195.024490,158.660522 189.989944,169.283966 
	C189.493088,170.332382 189.113922,171.436722 188.683960,172.516647 
	C186.019745,179.208481 187.323059,182.284195 193.667191,185.868011 
	C200.657700,189.816956 208.232086,191.292587 216.068436,192.021683 
	C228.890045,193.214569 240.378983,189.893967 250.405975,181.814896 
	C272.723206,163.833145 272.925507,125.753708 254.868576,105.598778 
M468.943298,228.500061 
	C468.909210,243.152390 468.981171,257.806152 468.783966,272.456268 
	C468.714203,277.640991 472.219177,276.725769 475.253387,276.898895 
	C478.433807,277.080353 481.292999,277.142792 481.118500,272.483490 
	C480.869324,265.832092 481.227264,259.156586 480.932068,252.508881 
	C480.752838,248.472031 481.892120,246.888611 486.186768,247.036591 
	C498.948120,247.476257 496.772247,245.323654 496.896149,257.919128 
	C496.957520,264.157806 496.906860,270.397552 496.906860,276.902100 
	C499.966034,276.902100 502.123962,276.784637 504.264221,276.928986 
	C507.677185,277.159180 509.036835,275.751587 509.014862,272.280518 
	C508.887421,252.135635 508.830719,231.989685 508.905548,211.844666 
	C508.920471,207.824646 508.103668,205.634125 503.363312,205.925644 
	C496.262268,206.362350 496.116486,206.197205 496.100037,212.185989 
	C496.079620,219.625198 496.095154,227.064514 496.095154,235.026108 
	C491.666321,235.026108 487.690430,235.278320 483.785889,234.861832 
	C482.710602,234.747116 481.072083,232.668900 481.020416,231.435928 
	C480.776733,225.621353 480.982330,219.787292 481.050598,213.960449 
	C481.145294,205.879974 481.150665,206.060623 473.294708,205.912796 
	C469.715576,205.845459 468.643921,207.101196 468.788391,210.520065 
	C469.027222,216.172226 468.911743,221.839325 468.943298,228.500061 
M186.876709,231.552292 
	C186.653702,244.682129 186.681641,257.823273 186.089676,270.936462 
	C185.837219,276.528992 188.342438,276.942719 192.887054,277.063690 
	C197.660538,277.190735 198.361252,275.249115 198.192795,271.189301 
	C197.907608,264.316956 198.114456,257.424194 198.114456,250.540024 
	C200.021713,251.500366 200.805389,252.655960 201.401962,253.901184 
	C204.560745,260.494568 207.623108,267.134735 210.845520,273.696533 
	C211.433487,274.893829 212.529694,276.605591 213.525192,276.702332 
	C217.221817,277.061615 220.974365,276.845551 225.574310,276.845551 
	C224.520264,274.069305 223.976166,272.205688 223.131668,270.489899 
	C220.196228,264.525818 217.369507,258.491882 214.086304,252.720688 
	C211.650375,248.438828 210.870468,244.943802 215.597366,241.723923 
	C217.036606,240.743530 218.041962,239.012436 219.012848,237.477646 
	C223.538254,230.323822 223.184860,222.836090 219.519043,215.641281 
	C216.029266,208.792007 209.928787,205.839508 202.236816,206.076462 
	C198.914719,206.178787 195.568115,206.226028 192.262863,205.944107 
	C188.255615,205.602310 186.537354,206.877304 186.751236,211.182587 
	C187.071671,217.632202 186.859955,224.108246 186.876709,231.552292 
M302.446106,276.206573 
	C307.060181,276.177643 311.710693,276.460999 316.266144,275.929474 
	C317.633057,275.769989 319.740875,273.376617 319.794922,271.942047 
	C320.145966,262.628021 319.973816,253.295547 320.086792,243.970505 
	C320.121429,241.114120 318.757050,240.124100 316.130829,240.153946 
	C312.467957,240.195587 308.804199,240.148651 305.140808,240.151596 
	C302.674805,240.153564 300.802032,240.865021 301.065369,243.847809 
	C301.294891,246.447235 299.998230,249.742508 304.566620,250.244736 
	C305.838440,250.384537 307.805084,252.078247 307.939880,253.235367 
	C308.373871,256.960327 308.101471,260.767609 308.101471,264.595062 
	C302.101410,265.743591 297.935944,263.345551 295.561981,258.809204 
	C289.863464,247.919922 288.520966,236.592331 294.855927,225.453720 
	C298.227325,219.525894 303.383057,216.392761 310.666077,217.633942 
	C313.381470,218.096695 316.241852,217.708817 319.010162,217.708817 
	C321.023682,208.954636 319.566315,204.953857 313.541779,205.352798 
	C307.261047,205.768738 300.402405,206.720169 295.023651,209.672913 
	C281.546051,217.071625 275.188354,233.296844 278.634186,248.790894 
	C281.523956,261.784424 287.238342,272.632385 302.446106,276.206573 
M249.157150,220.987381 
	C250.524567,219.915970 251.748138,218.354599 253.296631,217.899963 
	C255.137924,217.359375 257.258423,217.770309 259.257935,217.767853 
	C267.200897,217.758118 267.740936,217.050674 266.876770,209.048798 
	C266.554474,206.064606 265.147980,205.078751 262.282593,205.218216 
	C255.475464,205.549484 248.660095,205.872940 241.848022,205.873596 
	C238.399780,205.873917 236.775284,206.610428 236.770584,210.562271 
	C236.754379,224.213425 236.307449,237.863449 236.148895,251.515350 
	C236.077362,257.675446 236.332108,263.838715 236.376709,270.001038 
	C236.408447,274.385712 238.545990,276.115601 242.894379,275.957825 
	C248.717880,275.746521 254.559418,275.763000 260.384521,275.950836 
	C264.994049,276.099487 267.164246,274.448761 266.929016,269.550354 
	C266.645203,263.640991 265.665344,262.323730 260.060394,262.242035 
	C256.480103,262.189819 252.898453,262.232239 249.198441,262.232239 
	C249.089264,260.075104 248.975449,258.764587 248.963928,257.453156 
	C248.851776,244.688736 248.856659,244.688629 261.473602,244.115952 
	C261.639954,244.108398 261.806824,244.111237 261.973450,244.111130 
	C267.642548,244.107666 265.716919,239.763168 266.029144,236.829773 
	C266.358063,233.739761 265.435089,231.714355 261.623871,231.964996 
	C257.551392,232.232819 253.447632,232.025330 249.061127,232.025330 
	C249.061127,228.176849 249.061127,225.037811 249.157150,220.987381 
M401.204773,262.236847 
	C397.948029,262.236847 394.691254,262.236847 391.571075,262.236847 
	C389.165497,245.151123 389.512024,244.435745 403.375458,244.216797 
	C408.757751,244.131775 408.030945,240.807541 408.139618,237.519333 
	C408.249329,234.199402 407.925690,231.565491 403.384460,231.969376 
	C399.476166,232.316971 395.512482,232.041458 391.350952,232.041458 
	C391.203857,230.186493 391.031250,228.898483 391.010681,227.608032 
	C390.853760,217.767731 390.862976,217.767563 400.714935,217.763229 
	C409.372070,217.759430 410.073975,217.115204 408.745911,208.715118 
	C408.538116,207.400650 406.387695,205.418427 405.119751,205.406372 
	C397.490692,205.333771 389.847961,205.613876 382.234497,206.135971 
	C381.073486,206.215576 379.099518,208.156845 379.088226,209.253387 
	C378.876190,229.850479 378.974091,250.450592 378.819794,271.048645 
	C378.790222,274.991638 380.829193,275.887085 384.047821,275.893219 
	C390.035248,275.904663 396.023193,275.853882 402.009918,275.920685 
	C405.818848,275.963135 408.997925,275.667816 408.994843,270.518890 
	C408.990845,263.834930 408.242523,262.704773 401.204773,262.236847 
M448.681763,276.553650 
	C451.288605,276.286041 453.895416,276.018463 456.376526,275.763794 
	C458.925140,265.129974 458.908478,265.006409 448.919281,265.261017 
	C442.539673,265.423615 438.165527,262.688812 435.288605,257.099976 
	C431.375153,249.497543 430.757141,241.405930 432.481537,233.300919 
	C434.329498,224.614944 439.402039,216.460968 452.710327,217.858414 
	C453.975769,217.991272 455.278412,217.770050 457.136749,217.687897 
	C457.136749,215.459396 457.154205,213.512589 457.133362,211.566177 
	C457.079376,206.517471 455.628021,204.958878 450.555664,205.285446 
	C441.171539,205.889603 433.130951,209.481293 427.309814,217.068359 
	C419.672119,227.023148 418.867767,238.535461 420.799744,250.310181 
	C423.592163,267.329285 431.171417,274.380859 448.681763,276.553650 
M354.960449,251.500000 
	C354.976990,243.509583 354.999786,235.519150 355.008331,227.528732 
	C355.017609,218.829269 355.004944,218.768967 363.737122,217.770569 
	C369.083435,217.159302 366.599854,213.101257 367.045837,210.421127 
	C367.461243,207.924667 367.133728,205.877136 363.580414,205.938278 
	C354.095276,206.101440 344.604370,205.926163 335.118805,206.075928 
	C333.899384,206.095184 332.067963,206.937027 331.592377,207.917786 
	C328.954987,213.356384 331.829010,217.992004 337.820892,217.671249 
	C342.257721,217.433746 343.500153,218.870209 343.423340,223.286407 
	C343.139801,239.594955 343.425049,255.913376 343.143250,272.221985 
	C343.048981,277.676666 346.384918,276.746490 349.682343,276.959747 
	C353.435608,277.202454 355.174011,276.115265 354.995178,271.973236 
	C354.715424,265.493683 354.944611,258.992188 354.960449,251.500000 
z"/>
<path fill="#66D7D6" opacity="1.000000" stroke="none" 
	d="
M470.902405,191.059998 
	C450.846680,196.767258 432.473328,186.708206 424.180725,165.826401 
	C418.288635,150.989365 415.512939,135.493042 415.014099,119.637177 
	C414.617401,107.026512 414.171814,94.332710 415.148285,81.784798 
	C416.390625,65.820518 420.250610,50.422703 428.711395,36.366802 
	C444.066376,10.857549 477.125793,12.684337 492.724945,35.458439 
	C500.728760,47.143661 504.569366,60.296547 506.785309,73.997887 
	C510.461639,96.729164 509.521454,119.425659 504.797791,141.891861 
	C501.948303,155.444107 497.822235,168.606430 488.440430,179.426544 
	C483.740143,184.847443 478.048401,188.664307 470.902405,191.059998 
M475.279785,146.690979 
	C476.192932,140.964706 477.879333,135.238388 477.879150,129.512146 
	C477.878540,109.607841 477.696808,89.683899 476.729462,69.809006 
	C476.346893,61.948631 474.256744,53.943604 467.833008,48.206795 
	C462.563721,43.500973 456.469879,43.706734 452.199219,49.292564 
	C449.848358,52.367294 447.764587,56.175423 447.116516,59.922058 
	C445.283905,70.517006 443.459442,81.224960 443.110413,91.936569 
	C442.678284,105.197624 443.061768,118.573570 444.370087,131.773285 
	C445.308075,141.236893 448.004333,150.587845 450.596802,159.797470 
	C451.738922,163.854904 455.096375,166.823395 459.833893,167.075623 
	C464.791687,167.339584 468.124725,164.531342 470.116028,160.466431 
	C472.145111,156.324402 473.465332,151.835098 475.279785,146.690979 
z"/>
<path fill="#65D7D6" opacity="1.000000" stroke="none" 
	d="
M331.623474,190.824371 
	C310.440704,184.840149 300.384460,169.374130 295.043610,149.898819 
	C290.935730,134.919464 292.400238,119.766983 295.354218,104.898804 
	C300.819397,77.391258 311.484741,51.904209 326.863007,28.384018 
	C330.753021,22.434507 335.397705,19.062510 342.884125,19.741425 
	C348.665955,20.265759 354.535828,19.737122 360.360596,19.895075 
	C365.454041,20.033194 366.835114,22.239698 364.105225,26.498665 
	C356.934448,37.685898 349.233002,48.536274 342.181793,59.795666 
	C337.698273,66.954933 333.902191,74.555283 330.017517,82.071373 
	C329.087891,83.870087 329.033600,86.121216 328.265778,89.554657 
	C331.808258,88.429138 334.197296,87.746765 336.533081,86.915039 
	C348.340485,82.710732 359.180878,85.655289 368.308258,93.058624 
	C384.537781,106.222534 388.988831,124.451942 386.454620,144.259277 
	C384.214661,161.766830 376.505035,176.495117 360.544708,185.921051 
	C351.575043,191.218414 341.941589,191.477066 331.623474,190.824371 
M330.254852,160.468033 
	C340.648163,165.604858 351.373230,162.794617 355.176483,153.387054 
	C359.440155,142.840637 359.343750,131.941101 355.484009,121.266304 
	C353.283722,115.181129 346.860352,111.085678 340.775726,111.109390 
	C332.744873,111.140686 326.399506,114.519562 324.779785,121.908012 
	C323.105652,129.544662 323.150818,137.627045 323.069885,145.520844 
	C323.012329,151.135986 325.166260,156.215942 330.254852,160.468033 
z"/>
<path fill="#67D8D7" opacity="1.000000" stroke="none" 
	d="
M153.181534,212.846283 
	C147.101257,212.560226 141.471024,212.279465 135.838089,212.071930 
	C131.423538,211.909256 127.004562,211.713943 122.589508,211.753036 
	C115.446434,211.816284 108.304558,212.044937 101.162964,212.233643 
	C97.412476,212.332733 93.664238,212.588654 89.913979,212.611877 
	C77.850838,212.686615 65.785759,212.810303 53.724316,212.668854 
	C46.250900,212.581238 38.782719,212.046921 30.899107,211.694656 
	C28.488146,208.324234 28.014194,204.583694 28.787472,200.036652 
	C29.786110,194.164413 29.822725,188.085556 29.786007,182.098663 
	C29.768019,179.165573 28.343546,176.259979 28.142366,173.302048 
	C28.021259,171.521408 29.028347,169.663879 29.529455,167.841187 
	C29.702147,167.213058 30.211567,166.431152 30.002962,165.980911 
	C25.833076,156.980652 28.087141,147.502487 27.984035,138.232681 
	C27.908829,131.471100 28.645807,124.704338 28.738588,117.936012 
	C28.844475,110.211830 28.601265,102.483429 28.588844,94.756721 
	C28.585197,92.487503 28.898664,90.219528 28.977955,87.947884 
	C29.047462,85.956520 28.992468,83.960808 28.992468,81.495468 
	C31.892014,81.727615 35.171879,81.984535 38.450542,82.255966 
	C39.519276,82.344452 40.699051,82.824890 41.633717,82.523476 
	C48.675949,80.252495 55.644756,81.943512 62.702187,82.391235 
	C69.470261,82.820602 76.314896,82.046539 83.125748,81.797295 
	C89.015221,81.581779 94.902962,81.250732 100.794220,81.169235 
	C108.477097,81.062950 116.165993,81.014114 123.846169,81.197380 
	C131.242874,81.373871 138.629272,81.949211 146.025162,82.205856 
	C149.556335,82.328392 153.103104,82.203056 156.635300,82.033684 
	C159.700714,81.886696 160.218964,83.588364 160.104630,86.119301 
	C159.700073,95.074738 159.156799,104.031052 159.055145,112.991447 
	C158.874466,128.919937 158.966507,144.851624 158.965958,160.781982 
	C158.965393,176.443512 158.842804,192.107498 159.102402,207.764954 
	C159.174332,212.104340 157.622498,213.489227 153.181534,212.846283 
M51.901005,109.179169 
	C63.978878,105.287849 73.336021,109.787254 81.148216,118.786308 
	C83.100563,121.035263 84.694870,123.591522 86.515404,125.959122 
	C91.163399,132.003830 95.532974,138.302750 100.611412,143.963989 
	C104.886848,148.730103 110.730034,150.232437 117.062271,148.530075 
	C128.645844,145.415924 137.734207,132.329819 135.714020,120.626923 
	C133.857941,109.874626 128.506119,101.152107 118.534485,95.621277 
	C108.792686,90.217934 98.337730,88.942841 87.605682,90.086639 
	C73.066536,91.636185 60.448643,97.377869 50.579483,109.117851 
	C50.616959,109.315643 50.654430,109.513428 50.691906,109.711220 
	C50.813461,109.493217 50.935013,109.275215 51.901005,109.179169 
M150.090454,170.485443 
	C154.908554,154.882797 153.731033,139.930679 145.379776,125.637100 
	C145.184326,140.749969 135.862030,147.994171 123.011993,152.067047 
	C116.856644,154.018021 110.514023,155.369553 104.302322,157.153168 
	C93.003227,160.397552 86.023636,167.218384 86.126999,175.762405 
	C86.229568,184.241241 89.430695,191.764114 96.234268,197.103836 
	C106.209366,204.932739 122.661278,204.283005 133.366333,196.148315 
	C141.784409,189.751480 146.793671,181.148727 150.090454,170.485443 
M49.635990,128.933929 
	C39.164337,136.283447 33.484566,150.668243 36.592701,163.239975 
	C41.118763,181.546906 53.131493,193.570114 69.911026,201.102814 
	C76.633461,204.120697 83.760315,205.968048 92.405937,204.834503 
	C77.522133,196.625473 76.981735,184.191879 79.903641,170.691055 
	C81.307259,164.205566 83.289024,157.841751 84.598763,151.340179 
	C86.866982,140.080673 82.660095,130.587326 74.012413,127.579247 
	C66.060143,124.813087 58.043636,124.731575 49.635990,128.933929 
z"/>
<path fill="#66D8D7" opacity="1.000000" stroke="none" 
	d="
M255.114624,105.862396 
	C272.925507,125.753708 272.723206,163.833145 250.405975,181.814896 
	C240.378983,189.893967 228.890045,193.214569 216.068436,192.021683 
	C208.232086,191.292587 200.657700,189.816956 193.667191,185.868011 
	C187.323059,182.284195 186.019745,179.208481 188.683960,172.516647 
	C189.113922,171.436722 189.493088,170.332382 189.989944,169.283966 
	C195.024490,158.660522 196.392929,158.427246 206.534103,164.144287 
	C217.899796,170.551651 232.680573,168.175476 238.351456,152.082047 
	C241.687714,142.614075 242.602280,132.980087 237.435486,123.606491 
	C233.220337,115.959320 226.522263,112.122200 218.189285,111.090546 
	C213.807022,110.548004 211.947556,108.499222 212.132858,104.268181 
	C212.321884,99.952065 212.564819,95.637619 212.693054,91.319740 
	C212.789368,88.076347 214.658493,86.563065 217.577988,85.963387 
	C218.555511,85.762604 219.541061,85.478218 220.527054,85.460579 
	C228.619690,85.315819 234.132217,81.403351 236.840073,73.877754 
	C240.136230,64.717117 239.778015,55.784653 233.410492,47.952641 
	C228.165573,41.501419 221.568207,40.248249 213.707748,44.107414 
	C210.003510,45.926052 206.634537,48.455070 203.201706,50.791588 
	C199.542450,53.282234 196.541397,53.288502 194.132721,49.090130 
	C192.147705,45.630165 189.930359,42.304214 187.906830,38.865402 
	C186.063873,35.733433 186.882339,33.328472 189.825348,31.185684 
	C199.730591,23.973734 210.719742,19.217382 222.883484,18.322973 
	C243.677475,16.793978 259.578705,32.444164 262.943298,50.682205 
	C265.425232,64.135498 262.352356,76.476295 253.727890,87.167847 
	C251.598602,89.807487 248.535843,91.677826 246.029251,94.036835 
	C244.909622,95.090561 243.502426,96.417015 243.368652,97.735634 
	C243.280228,98.607285 245.100189,99.882332 246.284302,100.631248 
	C249.076187,102.397034 251.998825,103.956093 255.114624,105.862396 
z"/>
<path fill="#68D8D7" opacity="1.000000" stroke="none" 
	d="
M468.944427,228.000092 
	C468.911743,221.839325 469.027222,216.172226 468.788391,210.520065 
	C468.643921,207.101196 469.715576,205.845459 473.294708,205.912796 
	C481.150665,206.060623 481.145294,205.879974 481.050598,213.960449 
	C480.982330,219.787292 480.776733,225.621353 481.020416,231.435928 
	C481.072083,232.668900 482.710602,234.747116 483.785889,234.861832 
	C487.690430,235.278320 491.666321,235.026108 496.095154,235.026108 
	C496.095154,227.064514 496.079620,219.625198 496.100037,212.185989 
	C496.116486,206.197205 496.262268,206.362350 503.363312,205.925644 
	C508.103668,205.634125 508.920471,207.824646 508.905548,211.844666 
	C508.830719,231.989685 508.887421,252.135635 509.014862,272.280518 
	C509.036835,275.751587 507.677185,277.159180 504.264221,276.928986 
	C502.123962,276.784637 499.966034,276.902100 496.906860,276.902100 
	C496.906860,270.397552 496.957520,264.157806 496.896149,257.919128 
	C496.772247,245.323654 498.948120,247.476257 486.186768,247.036591 
	C481.892120,246.888611 480.752838,248.472031 480.932068,252.508881 
	C481.227264,259.156586 480.869324,265.832092 481.118500,272.483490 
	C481.292999,277.142792 478.433807,277.080353 475.253387,276.898895 
	C472.219177,276.725769 468.714203,277.640991 468.783966,272.456268 
	C468.981171,257.806152 468.909210,243.152390 468.944427,228.000092 
z"/>
<path fill="#67D8D7" opacity="1.000000" stroke="none" 
	d="
M186.875641,231.062683 
	C186.859955,224.108246 187.071671,217.632202 186.751236,211.182587 
	C186.537354,206.877304 188.255615,205.602310 192.262863,205.944107 
	C195.568115,206.226028 198.914719,206.178787 202.236816,206.076462 
	C209.928787,205.839508 216.029266,208.792007 219.519043,215.641281 
	C223.184860,222.836090 223.538254,230.323822 219.012848,237.477646 
	C218.041962,239.012436 217.036606,240.743530 215.597366,241.723923 
	C210.870468,244.943802 211.650375,248.438828 214.086304,252.720688 
	C217.369507,258.491882 220.196228,264.525818 223.131668,270.489899 
	C223.976166,272.205688 224.520264,274.069305 225.574310,276.845551 
	C220.974365,276.845551 217.221817,277.061615 213.525192,276.702332 
	C212.529694,276.605591 211.433487,274.893829 210.845520,273.696533 
	C207.623108,267.134735 204.560745,260.494568 201.401962,253.901184 
	C200.805389,252.655960 200.021713,251.500366 198.114456,250.540024 
	C198.114456,257.424194 197.907608,264.316956 198.192795,271.189301 
	C198.361252,275.249115 197.660538,277.190735 192.887054,277.063690 
	C188.342438,276.942719 185.837219,276.528992 186.089676,270.936462 
	C186.681641,257.823273 186.653702,244.682129 186.875641,231.062683 
M198.118164,225.643127 
	C198.117432,228.949585 198.109680,232.256042 198.117981,235.562485 
	C198.126251,238.853119 199.910400,239.478531 202.710220,238.629807 
	C208.701111,236.813766 211.794525,228.844757 208.925888,222.678787 
	C207.359146,219.311157 204.790894,217.377930 201.076752,217.924911 
	C196.832901,218.549896 198.512390,222.167709 198.118164,225.643127 
z"/>
<path fill="#68D8D7" opacity="1.000000" stroke="none" 
	d="
M302.033203,276.126587 
	C287.238342,272.632385 281.523956,261.784424 278.634186,248.790894 
	C275.188354,233.296844 281.546051,217.071625 295.023651,209.672913 
	C300.402405,206.720169 307.261047,205.768738 313.541779,205.352798 
	C319.566315,204.953857 321.023682,208.954636 319.010162,217.708817 
	C316.241852,217.708817 313.381470,218.096695 310.666077,217.633942 
	C303.383057,216.392761 298.227325,219.525894 294.855927,225.453720 
	C288.520966,236.592331 289.863464,247.919922 295.561981,258.809204 
	C297.935944,263.345551 302.101410,265.743591 308.101471,264.595062 
	C308.101471,260.767609 308.373871,256.960327 307.939880,253.235367 
	C307.805084,252.078247 305.838440,250.384537 304.566620,250.244736 
	C299.998230,249.742508 301.294891,246.447235 301.065369,243.847809 
	C300.802032,240.865021 302.674805,240.153564 305.140808,240.151596 
	C308.804199,240.148651 312.467957,240.195587 316.130829,240.153946 
	C318.757050,240.124100 320.121429,241.114120 320.086792,243.970505 
	C319.973816,253.295547 320.145966,262.628021 319.794922,271.942047 
	C319.740875,273.376617 317.633057,275.769989 316.266144,275.929474 
	C311.710693,276.460999 307.060181,276.177643 302.033203,276.126587 
z"/>
<path fill="#69D8D7" opacity="1.000000" stroke="none" 
	d="
M249.109131,221.443085 
	C249.061127,225.037811 249.061127,228.176849 249.061127,232.025330 
	C253.447632,232.025330 257.551392,232.232819 261.623871,231.964996 
	C265.435089,231.714355 266.358063,233.739761 266.029144,236.829773 
	C265.716919,239.763168 267.642548,244.107666 261.973450,244.111130 
	C261.806824,244.111237 261.639954,244.108398 261.473602,244.115952 
	C248.856659,244.688629 248.851776,244.688736 248.963928,257.453156 
	C248.975449,258.764587 249.089264,260.075104 249.198441,262.232239 
	C252.898453,262.232239 256.480103,262.189819 260.060394,262.242035 
	C265.665344,262.323730 266.645203,263.640991 266.929016,269.550354 
	C267.164246,274.448761 264.994049,276.099487 260.384521,275.950836 
	C254.559418,275.763000 248.717880,275.746521 242.894379,275.957825 
	C238.545990,276.115601 236.408447,274.385712 236.376709,270.001038 
	C236.332108,263.838715 236.077362,257.675446 236.148895,251.515350 
	C236.307449,237.863449 236.754379,224.213425 236.770584,210.562271 
	C236.775284,206.610428 238.399780,205.873917 241.848022,205.873596 
	C248.660095,205.872940 255.475464,205.549484 262.282593,205.218216 
	C265.147980,205.078751 266.554474,206.064606 266.876770,209.048798 
	C267.740936,217.050674 267.200897,217.758118 259.257935,217.767853 
	C257.258423,217.770309 255.137924,217.359375 253.296631,217.899963 
	C251.748138,218.354599 250.524567,219.915970 249.109131,221.443085 
z"/>
<path fill="#68D8D7" opacity="1.000000" stroke="none" 
	d="
M401.659546,262.237244 
	C408.242523,262.704773 408.990845,263.834930 408.994843,270.518890 
	C408.997925,275.667816 405.818848,275.963135 402.009918,275.920685 
	C396.023193,275.853882 390.035248,275.904663 384.047821,275.893219 
	C380.829193,275.887085 378.790222,274.991638 378.819794,271.048645 
	C378.974091,250.450592 378.876190,229.850479 379.088226,209.253387 
	C379.099518,208.156845 381.073486,206.215576 382.234497,206.135971 
	C389.847961,205.613876 397.490692,205.333771 405.119751,205.406372 
	C406.387695,205.418427 408.538116,207.400650 408.745911,208.715118 
	C410.073975,217.115204 409.372070,217.759430 400.714935,217.763229 
	C390.862976,217.767563 390.853760,217.767731 391.010681,227.608032 
	C391.031250,228.898483 391.203857,230.186493 391.350952,232.041458 
	C395.512482,232.041458 399.476166,232.316971 403.384460,231.969376 
	C407.925690,231.565491 408.249329,234.199402 408.139618,237.519333 
	C408.030945,240.807541 408.757751,244.131775 403.375458,244.216797 
	C389.512024,244.435745 389.165497,245.151123 391.571075,262.236847 
	C394.691254,262.236847 397.948029,262.236847 401.659546,262.237244 
z"/>
<path fill="#68D8D7" opacity="1.000000" stroke="none" 
	d="
M448.278442,276.458679 
	C431.171417,274.380859 423.592163,267.329285 420.799744,250.310181 
	C418.867767,238.535461 419.672119,227.023148 427.309814,217.068359 
	C433.130951,209.481293 441.171539,205.889603 450.555664,205.285446 
	C455.628021,204.958878 457.079376,206.517471 457.133362,211.566177 
	C457.154205,213.512589 457.136749,215.459396 457.136749,217.687897 
	C455.278412,217.770050 453.975769,217.991272 452.710327,217.858414 
	C439.402039,216.460968 434.329498,224.614944 432.481537,233.300919 
	C430.757141,241.405930 431.375153,249.497543 435.288605,257.099976 
	C438.165527,262.688812 442.539673,265.423615 448.919281,265.261017 
	C458.908478,265.006409 458.925140,265.129974 456.376526,275.763794 
	C453.895416,276.018463 451.288605,276.286041 448.278442,276.458679 
z"/>
<path fill="#69D8D7" opacity="1.000000" stroke="none" 
	d="
M354.959351,251.999985 
	C354.944611,258.992188 354.715424,265.493683 354.995178,271.973236 
	C355.174011,276.115265 353.435608,277.202454 349.682343,276.959747 
	C346.384918,276.746490 343.048981,277.676666 343.143250,272.221985 
	C343.425049,255.913376 343.139801,239.594955 343.423340,223.286407 
	C343.500153,218.870209 342.257721,217.433746 337.820892,217.671249 
	C331.829010,217.992004 328.954987,213.356384 331.592377,207.917786 
	C332.067963,206.937027 333.899384,206.095184 335.118805,206.075928 
	C344.604370,205.926163 354.095276,206.101440 363.580414,205.938278 
	C367.133728,205.877136 367.461243,207.924667 367.045837,210.421127 
	C366.599854,213.101257 369.083435,217.159302 363.737122,217.770569 
	C355.004944,218.768967 355.017609,218.829269 355.008331,227.528732 
	C354.999786,235.519150 354.976990,243.509583 354.959351,251.999985 
z"/>
<path fill="#FDFFFF" opacity="1.000000" stroke="none" 
	d="
M475.187866,147.094421 
	C473.465332,151.835098 472.145111,156.324402 470.116028,160.466431 
	C468.124725,164.531342 464.791687,167.339584 459.833893,167.075623 
	C455.096375,166.823395 451.738922,163.854904 450.596802,159.797470 
	C448.004333,150.587845 445.308075,141.236893 444.370087,131.773285 
	C443.061768,118.573570 442.678284,105.197624 443.110413,91.936569 
	C443.459442,81.224960 445.283905,70.517006 447.116516,59.922058 
	C447.764587,56.175423 449.848358,52.367294 452.199219,49.292564 
	C456.469879,43.706734 462.563721,43.500973 467.833008,48.206795 
	C474.256744,53.943604 476.346893,61.948631 476.729462,69.809006 
	C477.696808,89.683899 477.878540,109.607841 477.879150,129.512146 
	C477.879333,135.238388 476.192932,140.964706 475.187866,147.094421 
z"/>
<path fill="#FDFFFF" opacity="1.000000" stroke="none" 
	d="
M329.967438,160.223480 
	C325.166260,156.215942 323.012329,151.135986 323.069885,145.520844 
	C323.150818,137.627045 323.105652,129.544662 324.779785,121.908012 
	C326.399506,114.519562 332.744873,111.140686 340.775726,111.109390 
	C346.860352,111.085678 353.283722,115.181129 355.484009,121.266304 
	C359.343750,131.941101 359.440155,142.840637 355.176483,153.387054 
	C351.373230,162.794617 340.648163,165.604858 329.967438,160.223480 
z"/>
<path fill="#FDFFFF" opacity="1.000000" stroke="none" 
	d="
M150.025482,170.884033 
	C146.793671,181.148727 141.784409,189.751480 133.366333,196.148315 
	C122.661278,204.283005 106.209366,204.932739 96.234268,197.103836 
	C89.430695,191.764114 86.229568,184.241241 86.126999,175.762405 
	C86.023636,167.218384 93.003227,160.397552 104.302322,157.153168 
	C110.514023,155.369553 116.856644,154.018021 123.011993,152.067047 
	C135.862030,147.994171 145.184326,140.749969 145.379776,125.637100 
	C153.731033,139.930679 154.908554,154.882797 150.025482,170.884033 
z"/>
<path fill="#FDFFFF" opacity="1.000000" stroke="none" 
	d="
M49.952271,128.730072 
	C58.043636,124.731575 66.060143,124.813087 74.012413,127.579247 
	C82.660095,130.587326 86.866982,140.080673 84.598763,151.340179 
	C83.289024,157.841751 81.307259,164.205566 79.903641,170.691055 
	C76.981735,184.191879 77.522133,196.625473 92.405937,204.834503 
	C83.760315,205.968048 76.633461,204.120697 69.911026,201.102814 
	C53.131493,193.570114 41.118763,181.546906 36.592701,163.239975 
	C33.484566,150.668243 39.164337,136.283447 49.952271,128.730072 
z"/>
<path fill="#FDFFFF" opacity="1.000000" stroke="none" 
	d="
M50.976376,108.980354 
	C60.448643,97.377869 73.066536,91.636185 87.605682,90.086639 
	C98.337730,88.942841 108.792686,90.217934 118.534485,95.621277 
	C128.506119,101.152107 133.857941,109.874626 135.714020,120.626923 
	C137.734207,132.329819 128.645844,145.415924 117.062271,148.530075 
	C110.730034,150.232437 104.886848,148.730103 100.611412,143.963989 
	C95.532974,138.302750 91.163399,132.003830 86.515404,125.959122 
	C84.694870,123.591522 83.100563,121.035263 81.148216,118.786308 
	C73.336021,109.787254 63.978878,105.287849 51.459190,109.098503 
	C51.017380,109.017838 50.976376,108.980354 50.976376,108.980354 
z"/>
<path fill="#FDFFFF" opacity="1.000000" stroke="none" 
	d="
M51.036972,109.037521 
	C50.935013,109.275215 50.813461,109.493217 50.691906,109.711220 
	C50.654430,109.513428 50.616959,109.315643 50.777931,109.049103 
	C50.976376,108.980354 51.017380,109.017838 51.036972,109.037521 
z"/>
<path fill="#F8FDFD" opacity="1.000000" stroke="none" 
	d="
M198.119492,225.172424 
	C198.512390,222.167709 196.832901,218.549896 201.076752,217.924911 
	C204.790894,217.377930 207.359146,219.311157 208.925888,222.678787 
	C211.794525,228.844757 208.701111,236.813766 202.710220,238.629807 
	C199.910400,239.478531 198.126251,238.853119 198.117981,235.562485 
	C198.109680,232.256042 198.117432,228.949585 198.119492,225.172424 
z"/>
</svg>