<?xml version="1.0"?>
<svg xmlns="http://www.w3.org/2000/svg" id="Layer_1" viewBox="0 0 120 100">
  <defs>
    <style>.cls-1,.cls-2,.cls-3,.cls-4{fill:none;stroke-miterlimit:10;stroke-width:2px;}.cls-1{stroke:#153d65;}.cls-2,.cls-3,.cls-4{stroke:#9dd7cb;}.cls-3{stroke-dasharray:2 2;}.cls-4{stroke-dasharray:2 2;}</style>
  </defs>
  <title>ascent_icon-16</title>
  <path class="cls-1" d="M60,89,28,57.89a23.76,23.76,0,0,1,1-31.84,19.9,19.9,0,0,1,29.57,1L60,28.77l1.47-1.69a19.9,19.9,0,0,1,29.57-1,23.76,23.76,0,0,1,1,31.84Z"/>
  <polyline class="cls-2" points="59.34 37.58 60 38.33 60.66 37.58"/>
  <path class="cls-3" d="M62,36.07l4.24-4.87a13.62,13.62,0,0,1,20.38-.73,17.41,17.41,0,0,1,.83,23.11l-26,25.27"/>
  <polyline class="cls-2" points="60.72 79.55 60 80.25 59.28 79.55"/>
  <path class="cls-4" d="M57.85,78.15,32.58,53.58a17.41,17.41,0,0,1,.83-23.11,13.62,13.62,0,0,1,20.38.73l4.9,5.62"/>
</svg>
