<?xml version="1.0"?>
<svg xmlns="http://www.w3.org/2000/svg" id="Layer_1" viewBox="0 0 120 100">
  <defs>
    <style>.cls-1,.cls-2,.cls-3,.cls-4{fill:none;stroke-miterlimit:10;stroke-width:2px;}.cls-1{stroke:#153d65;}.cls-2,.cls-3,.cls-4{stroke:#9dd7cb;}.cls-3{stroke-dasharray:2 2;}.cls-4{stroke-dasharray:1.96 1.96;}</style>
  </defs>
  <title>new_icon-6 copy</title>
  <rect class="cls-1" x="25.37" y="10.29" width="69.26" height="83.8"/>
  <line class="cls-2" x1="87.46" y1="15.07" x2="87.46" y2="16.07"/>
  <line class="cls-3" x1="87.46" y1="18.06" x2="87.46" y2="84.91"/>
  <polyline class="cls-2" points="87.46 85.91 87.46 86.91 86.46 86.91"/>
  <line class="cls-4" x1="84.5" y1="86.91" x2="34.52" y2="86.91"/>
  <polyline class="cls-2" points="33.54 86.91 32.54 86.91 32.54 85.91"/>
  <line class="cls-3" x1="32.54" y1="83.92" x2="32.54" y2="17.06"/>
  <line class="cls-2" x1="32.54" y1="16.07" x2="32.54" y2="15.07"/>
  <rect class="cls-1" x="41.29" y="4.44" width="37.43" height="11.7"/>
  <polyline class="cls-1" points="38.9 32.12 43.06 36.28 51.46 27.89"/>
  <line class="cls-1" x1="57.06" y1="33.19" x2="81.1" y2="33.19"/>
  <polyline class="cls-1" points="38.9 50.18 43.06 54.34 51.46 45.95"/>
  <line class="cls-1" x1="57.06" y1="51.25" x2="81.1" y2="51.25"/>
  <polyline class="cls-1" points="38.9 68.23 43.06 72.4 51.46 64.01"/>
  <line class="cls-1" x1="57.06" y1="69.31" x2="81.1" y2="69.31"/>
</svg>
